<svg xmlns="http://www.w3.org/2000/svg" width="392.349" height="405.009" viewBox="0 0 392.349 405.009">
    <g id="Group_2035" data-name="Group 2035" opacity="0.807">
        <g id="Group_2034" data-name="Group 2034" transform="translate(4.274)">
            <g id="Group_2022" data-name="Group 2022" transform="translate(188.6)">
                <path id="Path_2974" data-name="Path 2974" d="M1674.125-660.305h-14.413v-9.057h-11.358v-8.355h-8.518L1627.1-690.551l-19.892.079-6.131,6.134.026,27.968-6.643,6.566,9.357,10.911v26.566l16.69.508,2.873,2.835h5.205v1.912h14.789l10.265,10.685,5.882-5.733v-15.843h11.609V-630.81l5.137-5.063V-648h-2.136Z" transform="translate(-1594.455 690.551)" fill="#fff" />
            </g>
            <g id="Group_2023" data-name="Group 2023" transform="translate(94.092 42.777)">
                <path id="Path_2975" data-name="Path 2975" d="M1557-631.552l-7.623,6.85h-16.37l-13.983,13.982v4.126h5.728l-4.763,4.77h-22.235v-4.395h-12.007l-2.525,1.982v-17.7h-19.116v14.322l5.2,5.2v32.507h37.451l4.846,6.176h11.749l11.753,11.609h6.586v-19.87l6.682-6.714h7.988v-12.457h3.318l5.943-4.206v-26.566Z" transform="translate(-1464.106 631.552)" fill="#fff" />
            </g>
            <g id="Group_2024" data-name="Group 2024" transform="translate(66.278 107.011)">
                <path id="Path_2976" data-name="Path 2976" d="M1458.213-445.67l-20.2-27.768,1.981-5.453-4.392-4.5v-6.54h-9.859v-7.741l10.983.083v-5.445h13.716l3.115-7.417h8.358l8.463-8.2-.177-24.311h24.432l5.465,6.751,11.734.322,19.288,18.806L1514.4-500.523l-10.672.608v12.558l-8.509,8.6h-25.706l8.855,8.822v24.269Z" transform="translate(-1425.745 542.957)" fill="#fff" />
            </g>
            <g id="Group_2025" data-name="Group 2025" transform="translate(73.778 168.615)">
                <path id="Path_2977" data-name="Path 2977" d="M1574.873-420.742l-38.094-.241-9.307-10.287v-8.318l-8.254-7.836h-6.633l-.641-3.456-7.917-7.111-4.593,4.629-21.587.187L1484.2-447v27.546h-19.739l.35,26.149,10.256,10.442v4.774l-14.117-14.037v41.178l-9.266,8.868v31.521l-15.594,16.15v4.169h12.056V-279h12.239l11.238,11.152,9.864-.271,1.768-7.474,7.957-8.037.563-13.15-3.536-4.129-5.3.563,18.143-18.939h14.978l12.837-12.859v-10.716l13.875-13.9v-4.706h21.751l.076-9.122,11.969-12.859.015-12.618,2.155-3.255-.1-18.264Z" transform="translate(-1436.088 457.991)" fill="#fff" />
            </g>
            <g id="Group_2026" data-name="Group 2026" transform="translate(121.175 267.427)">
                <path id="Path_2978" data-name="Path 2978" d="M1606.218-207.6H1570.87l-10.75-11.52h-6.995l-3.557-5.739h-41.9l-6.21-5.515.813-5.576,9.14-9.242.254-15.21-4.047-5.156-1.95.184,13.864-14.376h15.819l13.7-13.741V-305.03l13.984-13.823v-2.853h19.459v21.7L1595.6-302l7.052-6.872,8.861,7.173,10.729-10.789,3.014,7.052,8.318-3.8,3.014,3.014-.181,21.278h23.146v22.73l-15.731,5.876h-4.075L1625.7-240.9h-7.176l-8.987,9.541Z" transform="translate(-1501.46 321.706)" fill="#fff" />
            </g>
            <g id="Group_2027" data-name="Group 2027" transform="translate(264.785 268.552)">
                <path id="Path_2979" data-name="Path 2979" d="M1715.5-248.664v5.958H1739.3v5.614h12.809v5.734h14.946v-4.823H1782.8v-3.831l35.474-36.047-5.747-5.438h-13.655l-9.063-8.529v-11.893l2.84-3.173-7.915-8.186v-6.879H1773.77v9.028l-8.78.02-18.665,18.277,9.644,10.006-9.644,9.524-12.1-11.332H1716.7v24.449l-17.172,7.042,4.754,4.635Z" transform="translate(-1699.532 320.155)" fill="#fff" />
            </g>
            <g id="Group_2028" data-name="Group 2028" transform="translate(204.345 194.349)">
                <path id="Path_2980" data-name="Path 2980" d="M1753.5-406.5l-14.154,11.362v-10.524l-5.778,5.774-17.642-.042v-10.247h-7.966l-8.688,8.321h-9.662v4.971h-15.664v-14.057l-13.031-11.332-24.153-.224-10.708,10.254,4.038,3.512.161,20.011-1.929,3.316-.04,13.24-12.116,13.03v28.618l10.132-1.366,7.755-7.756,8.852,7.16,11.411-11.436,2.721,7.286,8.827-3.1,4.439,4.439v19.972h42.084l10.815,10.089,5.8-5.8-9.533-9.85,21.073-21.509h7.381v-8.7H1762.9l12.9-12.9-14.484-14.484,7.929-7.929-9-9V-406.5Z" transform="translate(-1616.171 422.498)" fill="#fff" />
            </g>
            <g id="Group_2029" data-name="Group 2029" transform="translate(143.294 91.902)">
                <path id="Path_2981" data-name="Path 2981" d="M1576.781-563.8l-.027,6.389h-8.269l-5.666,5.3v20.8h-6.269l7.98,7.8-19.493,20.226H1535.7l.03,10.684-3.759,3.9,9.061,7.937v2.538h5.981l8.9,8.984-.005,7.586,7.959,9.169h36.976l11.964-11.282h8.762v-27.161h-4.922V-511.6h3.918v-15.921h-13.917V-533.8h-15.961v-4.789l-11.632-11.969v-10.886Z" transform="translate(-1531.967 563.796)" fill="#fff" />
            </g>
            <g id="Group_2030" data-name="Group 2030" transform="translate(230.322 120.698)">
                <path id="Path_2982" data-name="Path 2982" d="M1781.825-484V-491.8l-15.137-13.561h-23.814l-14.03,13.949L1705.929-510.6l-5.893,6.159-20.307-.186v-9.425l-10.368-10.026h-13.54v25.706H1652v16.213h4.823v29.3l14.465.218,15.031,13.053-.2,12.294h11.4v-4.971h10.5l9.123-8.688H1727.8v9.673l15.128.07,6.5-6.5v-5.413l11.123-11.13v-5.479l15.057-15.057V-484Z" transform="translate(-1651.999 524.08)" fill="#fff" />
            </g>
            <g id="Group_2031" data-name="Group 2031" transform="translate(0 89.423)">
                <path id="Path_2983" data-name="Path 2983" d="M1430.075-556.553h-28.8l-2.922,2.733-13.4-13.4h-10.928l-5.773,5.652h-28.22l-5.709,5.709v6.429h12.912v2.892h-9.27v3.538h9.486v4.659h-11.682v3.165l11.521,8.356h15.409l16.739,16.715h9.911v3.483H1408.7v-5.439h13.716l4.769-7.493h8.358l6.81-6.73v-23.429h-12.22Z" transform="translate(-1334.331 567.215)" fill="#fff" />
            </g>
            <g id="Group_2032" data-name="Group 2032" transform="translate(358.992 345.04)">
                <path id="Path_2984" data-name="Path 2984" d="M1847.71-214.66v11.634h-8.483l-9.761,9.894v25.4l13.047,13.045h2.83v-5.979l4.332-4.812v-12.031l3.274-3.274V-214.66Z" transform="translate(-1829.465 214.66)" fill="#fff" />
            </g>
            <g id="Group_2033" data-name="Group 2033" transform="translate(249.226 41.953)">
                <path id="Path_2985" data-name="Path 2985" d="M1701.365-626.407v8.938L1696.6-613v13.439h-11.573v14.469l-6.956,7.106v21.27l10.714,10.669v8.7h17.76l6.536-6.722,22.6,19.113,13.386-13.387,25.432.206,16.717,15.389v8.882h8.559v-32.886l7.343-7.447V-569.41l9.8-9.8v-7.02h-16.286l-5.547-5.547h-17.6l-14.826-14.827H1739l-11.054-11.054h-9.448v-15.025h-4.34v6.7Z" transform="translate(-1678.073 632.687)" fill="#fff" />
            </g>
            <path id="Path_2986" data-name="Path 2986" d="M1622.457-576.1l-3.657-3.014-15.215-.65-7.248,5.151h-2.246v3.958l4.376,4.34v9.865l11.413,11.895v4.192h15.993v6.256h11.734v-7.876l15.23-.4-.017-21.1L1642.37-574.23l-15.735-.106v-1.728Z" transform="translate(-1405.755 660.09)" fill="#fff" />
        </g>
        <g id="Groupe_1543" data-name="Groupe 1543" transform="translate(0 173.075)">
            <path id="Tracé_2564" data-name="Tracé 2564" d="M1334.377-369.821l-5.078,5.078,2.725,2.725-3.442,11.089v7.108h6.433l4.168-4.167,1.958-4.1v-5.573h3.487l2.239,4.181h9.341l2.28,2.28h4.036l3.753,3.754V-350.9l-4.72-4.721-5.387-3.657v-3.462l1.881-1.88-3.156-5.6h-4.917l-1.486,4.567,1.333,1.9-2.238,1.049-.732,2.027h-4.288l-1.4-2.387h-2.316l-5.089-6.748" transform="translate(-1328.477 429.398)" fill="#fff" />
            <path id="Tracé_2565" data-name="Tracé 2565" d="M1358.053-447.417l-3.964-2.419h-13.169l-12.484,4.924V-433.8l6.729,6.729h7.324l3.206,18.878,6.909-2.8,4.6-6.069,5.045-2.088,1.715-3.754-1.679-16.2.961-5.388v-4.185l-5.444-3.156h-1.45Z" transform="translate(-1328.437 451.84)" fill="#fff" />
            <path id="Tracé_2566" data-name="Tracé 2566" d="M1338.143-237.589l6.391-1.169,8.263,5.009h6.069l-1.555,3.543-1.676,1.933,3.144.655v2.826l3.806,2.214v8.808H1359.9v-2.376h-6.939l-2.63,1.618-4.087-4.087,5.881-2.506-2.6-2.6-2.667,1.15-5.6-5.6v-2.876l-4.971-2.98Z" transform="translate(-1330.595 393.251)" fill="#fff" />
            <path id="Tracé_2567" data-name="Tracé 2567" d="M1336.575-307.056l6.163-2.875v-2.229h8.394l14.739,9.041v5.721l3.277,9.473-5.842,8.945h-3.659l-11.572-3.356-11.182-11.182,1.1-4.38-1.413-.626Z" transform="translate(-1330.675 413.434)" fill="#fff" />
        </g>
    </g>
</svg>