<svg xmlns="http://www.w3.org/2000/svg" width="155" height="85.605" viewBox="0 0 155 85.605">
  <g id="Group_1853" data-name="Group 1853" transform="translate(-1000 -120.198)">
    <g id="Logo_du_Ministère_de_l_agriculture_et_de_l_alimentation__2020_" data-name="Logo_du_Ministère_de_l&apos;agriculture_et_de_l&apos;alimentation_(2020)" transform="translate(986.239 111.038)">
      <path id="DEVISE_REPUBLICAINE" d="M44.871,91.472c.253,0,.464.211.38.675l-1.182.253c.169-.507.549-.929.8-.929m.675,1.942h-.253a1.375,1.375,0,0,1-.929.633c-.3,0-.507-.211-.507-.633a1.892,1.892,0,0,1,.042-.507l1.942-.633c.38-.886-.042-1.309-.633-1.309-.929,0-1.984,1.52-1.984,2.87,0,.633.3.929.718.929.633,0,1.14-.507,1.6-1.351m-.422-2.828,1.351-1.266V89.15h-.718l-.844,1.393h.211Zm-4.179.886h.633L40.523,94.3c-.084.253.042.464.253.464a2.309,2.309,0,0,0,1.815-1.351h-.169a3.073,3.073,0,0,1-1.182.718l.929-2.617H43.1l.084-.422h-.929l.38-.971h-.38l-.675.971-.8.084v.253h.169Zm-.8-.084c.042-.253-.084-.422-.211-.422a1.912,1.912,0,0,0-1.52,1.182h.169a1.445,1.445,0,0,1,.8-.591l-1.1,2.786a.3.3,0,0,0,.211.422,1.752,1.752,0,0,0,1.393-1.182h-.169a1.445,1.445,0,0,1-.8.591Zm.127-1.393a.464.464,0,1,0-.464-.464.468.468,0,0,0,.464.464m-6.163,4.263c-.169.3,0,.507.3.507.211,0,.253-.042.38-.253l.718-1.984a2.842,2.842,0,0,1,1.351-.886c.211,0,.169.169.042.422l-1.14,2.195a.326.326,0,0,0,.253.464,1.8,1.8,0,0,0,1.52-1.182h-.169a1.445,1.445,0,0,1-.8.591l.971-1.984a2.456,2.456,0,0,0,.211-.675.466.466,0,0,0-.507-.507c-.464,0-.971.507-1.562,1.182V91.6c0-.38-.084-.675-.464-.675a.939.939,0,0,0-.633.422v.042c.38,0,.507.507.253,1.1Zm0-2.448c.169-.464.042-.844-.3-.844-.422,0-.507.3-.929,1.182v-.507c0-.38-.084-.675-.464-.675-.422,0-.718.633-1.055,1.182h.169c.211-.253.38-.422.507-.422.169,0,.253.253,0,.844l-.8,1.688c-.169.3,0,.507.3.507.211,0,.253-.042.38-.253l.718-1.984c.211-.253.422-.464.633-.718ZM29.8,91.472c.253,0,.464.211.38.675L29,92.4c.169-.507.549-.929.8-.929m.675,1.942h-.253a1.375,1.375,0,0,1-.929.633c-.3,0-.507-.211-.507-.633a1.892,1.892,0,0,1,.042-.507l1.942-.633c.38-.886-.042-1.309-.633-1.309-.929,0-1.984,1.52-1.984,2.87,0,.633.3.929.718.929.591,0,1.14-.507,1.6-1.351m-4.6-1.942h.633L25.453,94.3c-.084.253.042.464.253.464a2.309,2.309,0,0,0,1.815-1.351h-.169a3.073,3.073,0,0,1-1.182.718l.929-2.617h.929l.084-.422h-.929l.38-.971h-.253l-.675.971-.8.084v.3Zm-3.5,2.195c0-.886.929-2.026,1.52-2.026a.718.718,0,0,1,.3.042L23.6,93.2c-.3.422-.844.886-1.055.886-.084-.042-.169-.127-.169-.422m2.955-2.87h-.3l-.3.3h-.042a3.329,3.329,0,0,0-2.955,3.081.534.534,0,0,0,.591.591c.422,0,.844-.591,1.266-1.182v.211c-.042.633.169.971.464.971.422,0,.718-.633,1.055-1.182h-.169c-.211.253-.38.422-.507.422-.169,0-.253-.253,0-.844ZM21.908,91.81c.169-.464.042-.844-.3-.844-.422,0-.507.3-.929,1.182v-.507c0-.38-.084-.675-.464-.675-.422,0-.718.633-1.055,1.182h.169c.211-.253.38-.422.507-.422s.253.253,0,.844l-.8,1.688c-.169.3,0,.507.3.507.211,0,.253-.042.38-.253l.718-1.984c.211-.253.422-.464.633-.718Zm-5.361,2.828.042-.211c-.929-.169-1.055-.169-.675-1.182l.38-1.055h1.013c.464,0,.464.211.422.675h.253l.633-1.688h-.253c-.211.422-.422.675-.929.675h-.971l.507-1.477c.169-.464.253-.591.886-.591h.464c.633,0,.718.169.718.844h.253l.211-1.14H15.66l-.042.211c.718.169.844.211.464,1.182l-.844,2.279c-.38.929-.507,1.055-1.351,1.182l-.084.211h2.744ZM35.5,82.734c.253,0,.464.211.38.675l-1.182.253c.169-.507.507-.929.8-.929m.675,1.942h-.253a1.375,1.375,0,0,1-.929.633c-.3,0-.507-.211-.507-.633a1.892,1.892,0,0,1,.042-.507l1.942-.633c.38-.886-.042-1.309-.633-1.309-.929,0-1.984,1.52-1.984,2.87,0,.633.3.929.718.929.591,0,1.14-.549,1.6-1.351m-.38-2.828,1.351-1.266v-.169h-.718l-.844,1.393H35.8Zm-4.221.886h.633l-1.055,2.828c-.084.253.042.464.253.464a2.309,2.309,0,0,0,1.815-1.351h-.169a3.073,3.073,0,0,1-1.182.718l.929-2.617h.971l.084-.422h-.8l.38-.971h-.38l-.675.971-.8.084v.253h0Zm-.844-.127c.042-.253-.084-.422-.211-.422A1.912,1.912,0,0,0,29,83.367h.169a1.445,1.445,0,0,1,.8-.591l-1.1,2.786a.3.3,0,0,0,.211.422A1.752,1.752,0,0,0,30.477,84.8h-.169a1.445,1.445,0,0,1-.8.591Zm.169-1.393a.464.464,0,1,0-.464-.464.5.5,0,0,0,.464.464m-3.715,4.179,1.942-5.108-.042-.042-1.182.169v.169l.253.169c.211.169.169.3-.042.844l-1.52,4.01a.326.326,0,0,0,.253.464,1.647,1.647,0,0,0,1.393-1.182h-.169a2.041,2.041,0,0,1-.886.507m-3.715-.464c0-.886.929-2.026,1.52-2.026a.718.718,0,0,1,.3.042l-.591,1.52c-.3.422-.844.886-1.055.886a.5.5,0,0,1-.169-.422m2.955-2.87h-.3l-.3.3h-.042a3.329,3.329,0,0,0-2.955,3.081.534.534,0,0,0,.591.591c.422,0,.844-.591,1.266-1.182v.211c-.042.633.169.971.464.971.422,0,.718-.633,1.055-1.182h-.169c-.211.253-.38.422-.507.422s-.253-.253,0-.844ZM19.291,86.7c0-.38.38-.633.886-.8.169.084.422.169.718.3.507.169.718.253.718.422,0,.38-.591.633-1.351.633-.633-.084-.971-.211-.971-.549m1.435-2.237c-.211,0-.3-.211-.3-.422,0-.633.3-1.562.886-1.562.211,0,.3.211.3.422,0,.591-.338,1.562-.886,1.562m1.562,1.857c0-.464-.422-.633-1.055-.8-.591-.169-.844-.211-.844-.422,0-.169.084-.3.38-.464a1.633,1.633,0,0,0,1.52-1.562c0-.169-.042-.253-.042-.38h.8l.084-.422H21.865a1.034,1.034,0,0,0-.507-.169,1.621,1.621,0,0,0-1.6,1.562.885.885,0,0,0,.718.929c-.464.211-.718.422-.718.718a.4.4,0,0,0,.211.38c-1.055.3-1.477.675-1.477,1.14s.633.675,1.393.675c1.309.127,2.406-.549,2.406-1.182m-4.9-2.955c.464,0,.464.211.422.675h.253l.633-1.688h-.3c-.211.422-.422.675-.929.675H16.5l.507-1.393c.169-.464.253-.591.886-.591h.464c.633,0,.718.169.718.844h.253l.211-1.14H15.7l-.042.211c.718.169.844.211.464,1.182l-.886,2.279c-.38.929-.507,1.055-1.351,1.182l-.042.211h4.263l.8-1.182h-.338a2.741,2.741,0,0,1-1.984.886c-1.14,0-1.055-.042-.675-1.1l.422-1.1,1.055.042Zm.549-2.955,1.351-.929v-.169h-.844l-.718,1.1h.211Zm17.138-6.458c.253,0,.464.211.38.675l-1.182.253c.127-.507.464-.929.8-.929m.633,1.942h-.253a1.375,1.375,0,0,1-.929.633c-.3,0-.507-.211-.507-.633a1.74,1.74,0,0,1,.042-.507l1.942-.633c.38-.886-.042-1.309-.633-1.309-.929,0-1.984,1.52-1.984,2.87,0,.633.3.929.718.929.591,0,1.182-.507,1.6-1.351m-.38-2.828L36.682,71.8v-.169h-.718l-.844,1.393h.211Zm-4.01.886h.507l-1.055,2.828c-.084.253.042.464.253.464A2.309,2.309,0,0,0,32.84,75.9h-.169a2.552,2.552,0,0,1-1.182.718L32.418,74h.929l.084-.422H32.5l.422-.971h-.38l-.675.971-.675.084v.253h.127Zm-.549.338c.169-.464.042-.844-.3-.844-.422,0-.507.3-.929,1.182v-.507c0-.38-.084-.675-.464-.675-.422,0-.718.633-1.055,1.182H28.2c.211-.253.38-.422.507-.422.169,0,.253.253,0,.844l-.718,1.688c-.169.3,0,.507.3.507.211,0,.253-.042.38-.253l.8-1.942c.211-.253.422-.464.633-.718h.718v-.042Zm-4.263-.338c.253,0,.464.211.38.675l-1.182.253c.169-.507.507-.929.8-.929m.675,1.942h-.253a1.375,1.375,0,0,1-.929.633c-.3,0-.507-.211-.507-.633a1.739,1.739,0,0,1,.042-.507l1.942-.633c.38-.886-.042-1.309-.633-1.309-.929,0-1.984,1.52-1.984,2.87,0,.633.3.929.718.929.633,0,1.14-.507,1.6-1.351m-4.812.76c-.211,0-.464-.169-.464-.3a2.507,2.507,0,0,1,.211-.507l.3-.844a2.008,2.008,0,0,1,1.14-.844c.169,0,.3.084.3.38.042.76-.675,2.111-1.477,2.111m2.279-2.448c0-.591-.211-.8-.633-.8-.464,0-.929.507-1.393,1.14l1.14-3.081-.042-.042-1.182.169v.169l.253.169c.211.169.169.38-.042.844l-1.266,3.25a5.493,5.493,0,0,0-.211.591c0,.3.464.633.886.633.844,0,2.49-1.731,2.49-3.039M20.81,73.87c.042-.253-.084-.422-.211-.422a1.912,1.912,0,0,0-1.52,1.182h.169a1.445,1.445,0,0,1,.8-.591l-1.1,2.786a.3.3,0,0,0,.211.422,1.752,1.752,0,0,0,1.393-1.182h-.169a1.445,1.445,0,0,1-.8.591Zm.169-1.435a.464.464,0,1,0-.464-.464.5.5,0,0,0,.464.464m-2.828-.464H15.618l-.042.211c.718.169.844.211.464,1.182L15.2,75.643c-.38.929-.507,1.055-1.351,1.182l-.042.211h3.841l.844-1.52h-.253a2.762,2.762,0,0,1-1.9,1.182c-.633,0-.718-.084-.38-1.1l.844-2.279c.38-.929.507-1.055,1.351-1.182V71.97Z"/>
      <path id="Fond_2_" d="M28.2,20.346l.422-.422h0a7.585,7.585,0,0,1,.8-.844,1.119,1.119,0,0,1,.253-.211.131.131,0,0,1,.042-.084c-.084.042-.211.169-.3.211,0,0-.042,0,0-.042a.563.563,0,0,0,.253-.211h0V18.7a1.04,1.04,0,0,0-.8.38h-.084c-.38.084-.633.422-.971.591v-.042c-.169.042-.253.169-.422.169a2.758,2.758,0,0,1-.591,0,6.553,6.553,0,0,0-.886.169h0a2.058,2.058,0,0,0-.464.169h0a.041.041,0,0,1-.042.042l-.169.169c-.169.042-.253.211-.422.3h-.042l-.38.38h-.042c0-.042.042-.042.042-.084s.042-.042.042-.084c.042-.042.042-.084.084-.169v-.042h-.042a1.819,1.819,0,0,1,.422-.3h-.042L24.9,20.3h0a.091.091,0,0,0-.084.084c-.042.042-.084.169-.211.169h-.042v-.042h0a.041.041,0,0,1,.042-.042h0v-.253l.169-.169h0c.084-.042.211-.084.253-.169a.041.041,0,0,0,.042-.042.685.685,0,0,0-.38.211h-.084c0-.042.084-.042.169-.084h.042c.8-.591,1.815-.464,2.7-.8.042-.042.169-.084.211-.169.084-.042.211-.169.38-.253a1.258,1.258,0,0,0,.422-.591v-.042a4.972,4.972,0,0,1-1.055.8,5.106,5.106,0,0,1-1.562.3c0-.042.042-.042.084-.042,0-.042.042-.084.084-.169h.042a.041.041,0,0,1,.042-.042h.084c-.042-.084-.211.042-.3,0,.042-.042,0-.084.042-.169h.084a.147.147,0,0,1,.042-.084c.38-.211.675-.38,1.055-.591a.33.33,0,0,1-.211,0c.042,0,0-.042.042-.042a5.149,5.149,0,0,0,.718-.3c-.084,0-.169.042-.253,0,.042,0,.042-.042.169-.042v-.042h0c0-.042.084,0,.169-.042h-.042c.042-.084.211-.084.3-.169,0-.042-.084,0-.084-.042h0c-.042,0,0-.042,0-.084a1.009,1.009,0,0,0,.211-.591h-.042a2.081,2.081,0,0,1-.971.464H27.1a.716.716,0,0,1-.422,0,.563.563,0,0,1-.253-.211c-.211-.084-.38-.211-.591-.3a4.41,4.41,0,0,0-1.815-.253,3.216,3.216,0,0,1,.844-.253,6.613,6.613,0,0,1,1.182-.253h-.253a3.411,3.411,0,0,0-1.055.169c-.253.042-.464.169-.675.211-.169.042-.211.211-.38.169v-.042c.253-.3.507-.591.886-.591a6.358,6.358,0,0,1,1.266.042,3.288,3.288,0,0,1,.886.169c.084,0,.169.211.253.211.169.042.3,0,.422.084v-.169c.084-.084.211,0,.3,0,.211-.084-.169-.3-.253-.507V15.66c.211.169.3.38.591.464.084.042.422.084.38,0-.084-.253-.38-.464-.591-.718V15.2c-.042,0-.042,0-.042-.042v-.084c-.084-.042-.042-.169-.084-.211-.042-.084,0-.3-.042-.422-.042-.169-.042-.253-.084-.422-.042-.422-.169-.8-.211-1.14a1.958,1.958,0,0,1,.464-1.182,2.451,2.451,0,0,1,.675-.8,1.978,1.978,0,0,1,.464-.8,2.3,2.3,0,0,1,.718-.464,1.3,1.3,0,0,1,.591-.464h4.77l.084.042a3.062,3.062,0,0,0,.38.211,1.032,1.032,0,0,1,.464.38.347.347,0,0,1,.042.3c-.042.084-.042.3-.211.38a1.892,1.892,0,0,1-.507.042.718.718,0,0,1-.3-.042,2.037,2.037,0,0,1,.929.633c0,.042.084.042.211.042v.042c-.042.042-.084.042-.042.169h.169c.084-.042.084-.3.253-.211a.308.308,0,0,1,.084.38c-.084.084-.211.169-.3.253v.169a.783.783,0,0,1,.084.3,1.787,1.787,0,0,0,.169.507,2.046,2.046,0,0,1,.211,1.1c0,.211-.084.38,0,.591.042.211.169.3.253.507.084.169.211.253.253.38.169.253.422.464.3.8-.042.169-.3.169-.507.253-.169.084,0,.3.042.422.084.211-.169.38-.3.422.042.042.169.042.169.084,0,.084.169.211.042.3-.084.169-.38.211-.253.422a.7.7,0,0,1,0,.507c-.042.211-.253.3-.422.38a.867.867,0,0,1-.464,0c-.042,0-.084-.042-.169-.042-.422-.042-.844-.169-1.182-.169a.61.61,0,0,0-.3.084c-.084.084-.211.169-.3.253h0l-.042.042-.042.042h0c-.042.084-.169.169-.211.253h0v.042a1.1,1.1,0,0,0-.169.422,1.579,1.579,0,0,0,0,1.14c.042.042.8.253,1.309.507.253.084.422.211.591.253H25.411a17.332,17.332,0,0,1,1.562-.8,3.011,3.011,0,0,0,1.224-.591m-3.672-1.688H24.44c0-.084.211-.084.3-.169.042,0,.084-.042.169-.042.042.042.084.042.169.084-.169.127-.38,0-.549.127m-3.715-.591h0a13.4,13.4,0,0,0,.718-1.266,4.238,4.238,0,0,0,.844-.675,4.524,4.524,0,0,1,1.351-1.055,1.6,1.6,0,0,1,.633,0c-.042.084-.211.042-.3.169h-.042V15.2c-.253.253-.591.38-.8.675-.169.253-.253.591-.591.633-.084,0,0-.042,0-.042a12.682,12.682,0,0,0-1.815,1.6M22.836,16.5c0,.042-.042.042-.042.084s-.042.042-.084.084h-.042a.155.155,0,0,1,.169-.169h0m1.1,3.588a.041.041,0,0,1-.042.042c.042,0,.042,0,.042.042a.219.219,0,0,1-.169.084h-.042l-.084.084c-.042,0-.169,0-.084-.042l.169-.169.084-.084.042-.042c0,.042.084.042.084.084m-.38-.211h0a1.338,1.338,0,0,0-.253.211,1.058,1.058,0,0,0-.3.169h-.042a.563.563,0,0,0-.253.211l-.042.042h0l-.042.042h0l-.042.042-.042.042h-.253c-.042,0-.042.042-.084.042l-.169.169h0V20.81h0c0-.042.042-.042.042-.084h0v-.042l.042-.042h0c.042-.042.042-.042.042-.084h0a2642.18,2642.18,0,0,0,.084-.084h0V20.43h0v-.042h0v-.042h0c.042-.042.042-.084.084-.084h0c-.042,0-.042.042-.084.042a.041.041,0,0,1-.042-.042l.042-.042h0c.042-.042.042-.084.084-.084a.041.041,0,0,0,.042-.042h0l.042-.042h0c.211-.211.633-.211.929-.38.084-.042.253,0,.38,0,.042,0,.169,0,.211.042-.042-.084-.253.084-.38.169m.464-1.646a.131.131,0,0,0,.084-.042h-.211v-.042a1.566,1.566,0,0,0-.38.084c-.169.042-.3.169-.507.211-.253.084-.464.3-.8.422v-.042c0-.042.084-.084.169-.169v-.084c.211-.253.464-.422.675-.633V17.9c.042-.084.211-.169.253-.253a.33.33,0,0,1,.253-.211.041.041,0,0,1-.042-.042c-.084,0-.211.042-.3,0,.042-.042.084-.042.169-.084a.041.041,0,0,1-.042-.042.091.091,0,0,1,.084-.084.4.4,0,0,0,.3-.084c-.169,0-.38.042-.507-.042a1.068,1.068,0,0,1,.633-.718h.042a.255.255,0,0,1-.211.253,1.565,1.565,0,0,1,.591.169c0,.042-.042,0-.084,0,.084.042.253,0,.38.084-.042.042-.169,0-.211,0a5.973,5.973,0,0,1,2.153.886,7.141,7.141,0,0,1-1.688.507h-.211v.042a.535.535,0,0,0-.253.042c-.127-.042-.253,0-.338-.084" fill="#fff"/>
      <path id="Rouge_1_" d="M28.2,20.346l.422-.422h0a7.585,7.585,0,0,1,.8-.844,1.119,1.119,0,0,1,.253-.211.131.131,0,0,1,.042-.084c-.084.042-.211.169-.3.211,0,0-.042,0,0-.042a.563.563,0,0,0,.253-.211h0V18.7a1.04,1.04,0,0,0-.8.38h-.084c-.38.084-.633.422-.971.591v-.042c-.169.042-.253.169-.422.169a2.758,2.758,0,0,1-.591,0,6.553,6.553,0,0,0-.886.169h0a2.058,2.058,0,0,0-.464.169h0a.041.041,0,0,1-.042.042l-.169.169c-.169.042-.253.211-.422.3h-.042l-.38.38h-.042c0-.042.042-.042.042-.084s.042-.042.042-.084c.042-.042.042-.084.084-.169v-.042h-.042a1.819,1.819,0,0,1,.422-.3h-.042L24.9,20.3h0a.091.091,0,0,0-.084.084c-.042.042-.084.169-.211.169h-.042v-.042h0a.041.041,0,0,1,.042-.042h0v-.253l.169-.169h0c.084-.042.211-.084.253-.169a.041.041,0,0,0,.042-.042.685.685,0,0,0-.38.211h-.084c0-.042.084-.042.169-.084h.042c.8-.591,1.815-.464,2.7-.8.042-.042.169-.084.211-.169.084-.042.211-.169.38-.253a1.258,1.258,0,0,0,.422-.591v-.042a4.972,4.972,0,0,1-1.055.8,5.106,5.106,0,0,1-1.562.3c0-.042.042-.042.084-.042,0-.042.042-.084.084-.169h.042a.041.041,0,0,1,.042-.042h.084c-.042-.084-.211.042-.3,0,.042-.042,0-.084.042-.169h.084a.147.147,0,0,1,.042-.084c.38-.211.675-.38,1.055-.591a.33.33,0,0,1-.211,0c.042,0,0-.042.042-.042a5.149,5.149,0,0,0,.718-.3c-.084,0-.169.042-.253,0,.042,0,.042-.042.169-.042v-.042h0c0-.042.084,0,.169-.042h-.042c.042-.084.211-.084.3-.169,0-.042-.084,0-.084-.042h0c-.042,0,0-.042,0-.084a1.009,1.009,0,0,0,.211-.591h-.042a2.081,2.081,0,0,1-.971.464H27.1a.716.716,0,0,1-.422,0,.563.563,0,0,1-.253-.211c-.211-.084-.38-.211-.591-.3a4.41,4.41,0,0,0-1.815-.253,3.216,3.216,0,0,1,.844-.253,6.613,6.613,0,0,1,1.182-.253h-.253a3.411,3.411,0,0,0-1.055.169c-.253.042-.464.169-.675.211-.169.042-.211.211-.38.169v-.042c.253-.3.507-.591.886-.591a6.358,6.358,0,0,1,1.266.042,3.288,3.288,0,0,1,.886.169c.084,0,.169.211.253.211.169.042.3,0,.422.084v-.169c.084-.084.211,0,.3,0,.211-.084-.169-.3-.253-.507V15.66c.211.169.3.38.591.464.084.042.422.084.38,0-.084-.253-.38-.464-.591-.718V15.2c-.042,0-.042,0-.042-.042v-.084c-.084-.042-.042-.169-.084-.211-.042-.084,0-.3-.042-.422-.042-.169-.042-.253-.084-.422-.042-.422-.169-.8-.211-1.14a1.958,1.958,0,0,1,.464-1.182,2.451,2.451,0,0,1,.675-.8,1.978,1.978,0,0,1,.464-.8,2.3,2.3,0,0,1,.718-.464,1.3,1.3,0,0,1,.591-.464h-16.5V21.823h11.65a17.331,17.331,0,0,1,1.562-.8,4.842,4.842,0,0,0,1.224-.675m-3.672-1.688H24.44c0-.084.211-.084.3-.169.042,0,.084-.042.169-.042.042.042.084.042.169.084-.169.127-.38,0-.549.127m-3.63-.591h0a13.4,13.4,0,0,0,.718-1.266,4.238,4.238,0,0,0,.844-.675,4.524,4.524,0,0,1,1.351-1.055,1.6,1.6,0,0,1,.633,0c-.042.084-.211.042-.3.169H24.06V15.2c-.253.253-.591.38-.8.675-.169.253-.253.591-.591.633-.084,0,0-.042,0-.042a8.034,8.034,0,0,0-1.773,1.6M22.836,16.5c0,.042-.042.042-.042.084s-.042.042-.084.084h-.042a.155.155,0,0,1,.169-.169h0m1.1,3.588a.041.041,0,0,1-.042.042c.042,0,.042,0,.042.042a.219.219,0,0,1-.169.084h-.042l-.084.084c-.042,0-.169,0-.084-.042l.169-.169.084-.084.042-.042c0,.042.084.042.084.084m-.38-.211h0a1.338,1.338,0,0,0-.253.211,1.058,1.058,0,0,0-.3.169h-.042a.563.563,0,0,0-.253.211l-.042.042h0l-.042.042h0l-.042.042-.042.042h-.253c-.042,0-.042.042-.084.042l-.169.169h0V20.81h0c0-.042.042-.042.042-.084h0v-.042l.042-.042h0c.042-.042.042-.042.042-.084h0a2642.18,2642.18,0,0,0,.084-.084h0V20.43h0v-.042h0v-.042h0c.042-.042.042-.084.084-.084h0c-.042,0-.042.042-.084.042a.041.041,0,0,1-.042-.042l.042-.042h0c.042-.042.042-.084.084-.084a.041.041,0,0,0,.042-.042h0l.042-.042h0c.211-.211.633-.211.929-.38.084-.042.253,0,.38,0,.042,0,.169,0,.211.042-.042-.084-.169.084-.38.169m.464-1.646a.131.131,0,0,0,.084-.042h-.211v-.042a1.566,1.566,0,0,0-.38.084c-.169.042-.3.169-.507.211-.253.084-.464.3-.8.422v-.042c0-.042.084-.084.169-.169v-.084c.211-.253.464-.422.675-.633V17.9c.042-.084.211-.169.253-.253a.33.33,0,0,1,.253-.211.041.041,0,0,1-.042-.042c-.084,0-.211.042-.3,0,.042-.042.084-.042.169-.084a.041.041,0,0,1-.042-.042.091.091,0,0,1,.084-.084.4.4,0,0,0,.3-.084c-.169,0-.38.042-.507-.042a1.068,1.068,0,0,1,.633-.718h.042a.255.255,0,0,1-.211.253,1.565,1.565,0,0,1,.591.169c0,.042-.042,0-.084,0,.084.042.253,0,.38.084-.042.042-.169,0-.211,0a5.973,5.973,0,0,1,2.153.886,7.141,7.141,0,0,1-1.688.507h-.211v.042a.535.535,0,0,0-.253.042c-.127-.042-.253,0-.338-.084" fill="#000091"/>
      <path id="Bleu_1_" d="M48.67,9.16H35.035l.084.042a3.062,3.062,0,0,0,.38.211,1.032,1.032,0,0,1,.464.38.347.347,0,0,1,.042.3c-.042.084-.042.3-.211.38a1.892,1.892,0,0,1-.507.042.718.718,0,0,1-.3-.042,2.037,2.037,0,0,1,.929.633c0,.042.084.042.211.042v.042c-.042.042-.084.042-.042.169h.169c.084-.042.084-.3.253-.211a.308.308,0,0,1,.084.38c-.084.084-.211.169-.3.253v.169a.783.783,0,0,1,.084.3,1.787,1.787,0,0,0,.169.507,2.046,2.046,0,0,1,.211,1.1c0,.211-.084.38,0,.591.042.211.169.3.253.507.084.169.211.253.253.38.169.253.422.464.3.8-.042.169-.3.169-.507.253-.169.084,0,.3.042.422.084.211-.169.38-.3.422.042.042.169.042.169.084,0,.084.169.211.042.3-.084.169-.38.211-.253.422a.7.7,0,0,1,0,.507c-.042.211-.253.3-.422.38a.867.867,0,0,1-.464,0c-.042,0-.084-.042-.169-.042-.422-.042-.844-.169-1.182-.169a.61.61,0,0,0-.3.084c-.084.084-.211.169-.3.253h0l-.042.042-.042.042h0c-.042.084-.169.169-.211.253h0v.042a1.1,1.1,0,0,0-.169.422,1.579,1.579,0,0,0,0,1.14c.042.042.8.253,1.309.507.253.084.422.211.591.253H48.8V9.16Z" fill="#e1000f"/>
      <path id="Yeux_1_" d="M35.837,13.8c.084,0,.253,0,.253.042-.042.211-.3.253-.464.422h-.042c-.042.042-.042.169-.084.169h-.211a.535.535,0,0,0,.38.169.147.147,0,0,1,.042.084H35.8v.084c-.042.084-.211.042-.3.042a1.4,1.4,0,0,0,.591,0c.169-.042,0-.3.084-.422-.042,0,0-.042-.042-.042l.169-.169a.319.319,0,0,0,.169-.042c0-.042-.084-.042-.042-.084a.342.342,0,0,0,.211-.38c0-.042-.211-.042-.3-.084a1.384,1.384,0,0,0-.422,0,1.566,1.566,0,0,0-.38.084,3.028,3.028,0,0,0-.591.211,3.544,3.544,0,0,0,.507-.169c.127.084.253,0,.38.084" fill="#9c9b9b"/>
      <path id="Texte" d="M13.8,37.484V28.028h2.406l2.279,3.883,2.279-3.883h2.448v9.455h-1.9V30.772l-2.111,3.5H17.855l-2.111-3.5v6.712Zm12.157,0V28.028h1.9v9.455Zm4.728,0V28.028h2.448l4.221,6.754V28.028h1.9v9.455H36.808l-4.221-6.8v6.8Zm11.355,0V28.028h1.9v9.455Zm3.841-1.309,1.393-1.266a3.05,3.05,0,0,0,.971.844,2.3,2.3,0,0,0,1.14.3,1.189,1.189,0,0,0,.886-.3,1.081,1.081,0,0,0,.338-.8,1.021,1.021,0,0,0-.675-.971c-.464-.211-.929-.464-1.477-.718a5.112,5.112,0,0,1-1.477-1.013,2.262,2.262,0,0,1-.675-1.773,2.939,2.939,0,0,1,.211-1.055,2.629,2.629,0,0,1,.633-.886,2.86,2.86,0,0,1,.971-.591,3.718,3.718,0,0,1,1.224-.211,3.938,3.938,0,0,1,1.9.422,5.346,5.346,0,0,1,1.435,1.14l-1.393,1.266a4.088,4.088,0,0,0-.886-.844,1.717,1.717,0,0,0-1.013-.338,1.051,1.051,0,0,0-.8.3.87.87,0,0,0-.3.718,1.021,1.021,0,0,0,.675.971c.464.211.929.464,1.477.718a5.112,5.112,0,0,1,1.477,1.013,2.3,2.3,0,0,1,.675,1.815,2.7,2.7,0,0,1-.253,1.182A2.77,2.77,0,0,1,50.7,37.526a3.922,3.922,0,0,1-1.224.211,4.233,4.233,0,0,1-2.026-.422A3.849,3.849,0,0,1,45.884,36.175Zm7.767-6.416V28.028h7.767v1.731H58.5v7.725H56.563V29.759Zm9.582,7.725V28.028h5.53v1.646H65.174V31.87h3.039v1.646H65.174V35.88h3.588v1.646h-5.53Zm1.9-10.257L63.4,25.411h1.984l1.52,1.815Zm5.994,10.257V28.028H74a3.617,3.617,0,0,1,2.448.76,2.563,2.563,0,0,1,.886,2.068,2.852,2.852,0,0,1-.38,1.477,2.458,2.458,0,0,1-1.1.971l2.955,4.179H76.529L74,33.642h-.971v3.841h-1.9Zm3-7.809h-1.1v2.364h1.1a1.232,1.232,0,0,0,.929-.3,1.209,1.209,0,0,0,.338-.886,1.11,1.11,0,0,0-.338-.844A1.153,1.153,0,0,0,74.123,29.675Zm6.036,7.809V28.028h5.53v1.646H82.1V31.87H85.14v1.646H82.1V35.88h3.588v1.646h-5.53ZM13.8,50.991V41.536h3.715a5.467,5.467,0,0,1,2.068.38,5.192,5.192,0,0,1,1.6,1.013,4.791,4.791,0,0,1,1.013,1.52,4.526,4.526,0,0,1,0,3.63A5.315,5.315,0,0,1,21.19,49.6a4.739,4.739,0,0,1-1.6,1.013,5.467,5.467,0,0,1-2.068.38H13.8Zm3.715-7.725H15.7v5.952h1.815a3.922,3.922,0,0,0,1.224-.211,3.854,3.854,0,0,0,.971-.633,3.223,3.223,0,0,0,.633-.971,2.8,2.8,0,0,0,.211-1.182,3.662,3.662,0,0,0-.211-1.182,3.007,3.007,0,0,0-.633-.929,3.223,3.223,0,0,0-.971-.633A3.53,3.53,0,0,0,17.518,43.267Zm7.007,7.725V41.536h5.53v1.646H26.467v2.195h3.039v1.646H26.467v2.364h3.588v1.646h-5.53Zm11.524,0V41.536h1.9v7.725h3.588v1.731H36.048Zm6.838-5.572h-1.6l1.224-3.883h1.942Zm.929,5.572L47.4,41.536h2.533l3.588,9.455H51.5l-.886-2.448h-3.8l-.886,2.448Zm3.5-4.095h2.575l-1.309-3.546ZM59.18,49.472a3.922,3.922,0,0,0,1.224-.211,3.142,3.142,0,0,0,.971-.591v-1.6H58.969V45.335h4.348v4.01a4.37,4.37,0,0,1-1.731,1.393,5.582,5.582,0,0,1-2.406.507,4.965,4.965,0,0,1-2.111-.422,4.9,4.9,0,0,1-1.646-1.1,4.616,4.616,0,0,1-1.055-1.6,4.977,4.977,0,0,1-.38-1.942,5.132,5.132,0,0,1,.38-1.942,5.742,5.742,0,0,1,1.013-1.6,4.914,4.914,0,0,1,1.6-1.1,5.434,5.434,0,0,1,2.026-.422,4.717,4.717,0,0,1,2.322.549,4.906,4.906,0,0,1,1.688,1.393L61.5,44.237a3.036,3.036,0,0,0-1.013-.929,2.679,2.679,0,0,0-1.435-.338,3.028,3.028,0,0,0-1.224.253,2.677,2.677,0,0,0-.971.675,4.11,4.11,0,0,0-.633,1.013,3.571,3.571,0,0,0,.042,2.533,3.1,3.1,0,0,0,1.688,1.688A2.935,2.935,0,0,0,59.18,49.472Zm6.416,1.52V41.536h2.87a3.617,3.617,0,0,1,2.448.76,2.563,2.563,0,0,1,.886,2.068,2.852,2.852,0,0,1-.38,1.477,2.458,2.458,0,0,1-1.1.971l2.955,4.179H71L68.467,47.15H67.5v3.841H65.6Zm3-7.809H67.5v2.364h1.1a1.232,1.232,0,0,0,.929-.3,1.209,1.209,0,0,0,.338-.886,1.11,1.11,0,0,0-.338-.844A1.153,1.153,0,0,0,68.593,43.182Zm6.036,7.809V41.536h1.9v9.455Zm8.907-1.52a3.13,3.13,0,0,0,1.435-.338,3.072,3.072,0,0,0,1.013-.929l1.52,1.182a4.235,4.235,0,0,1-1.688,1.393,5.208,5.208,0,0,1-2.322.507,4.465,4.465,0,0,1-2.026-.422,4.722,4.722,0,0,1-1.6-1.1,4,4,0,0,1-1.013-1.6,4.977,4.977,0,0,1-.38-1.942,5.132,5.132,0,0,1,.38-1.942,5.742,5.742,0,0,1,1.013-1.6,4.914,4.914,0,0,1,1.6-1.1,5.434,5.434,0,0,1,2.026-.422,4.717,4.717,0,0,1,2.322.549A4.906,4.906,0,0,1,87.5,43.1l-1.52,1.182a3.037,3.037,0,0,0-1.013-.929,2.679,2.679,0,0,0-1.435-.338,3.028,3.028,0,0,0-1.224.253,2.677,2.677,0,0,0-.971.675,4.11,4.11,0,0,0-.633,1.013,3.076,3.076,0,0,0-.211,1.266,3.979,3.979,0,0,0,.211,1.266,4.11,4.11,0,0,0,.633,1.013,2.677,2.677,0,0,0,.971.675A2.5,2.5,0,0,0,83.536,49.472Zm11.27-2.026v-5.91h1.9v5.741a4.078,4.078,0,0,1-1.013,2.913,4.205,4.205,0,0,1-5.572,0,4.078,4.078,0,0,1-1.013-2.913V41.536h1.9v5.91a2.024,2.024,0,0,0,.507,1.477,1.907,1.907,0,0,0,1.393.549,1.754,1.754,0,0,0,1.393-.549A2.024,2.024,0,0,0,94.807,47.446Zm4.432,3.546V41.536h1.9v7.725h3.588v1.731H99.239Zm5.234-7.725V41.536h7.767v1.731h-2.913v7.725h-1.9V43.267Zm15.154,4.179v-5.91h1.9v5.741a4.078,4.078,0,0,1-1.013,2.913,4.205,4.205,0,0,1-5.572,0,4.078,4.078,0,0,1-1.013-2.913V41.536h1.9v5.91a2.024,2.024,0,0,0,.507,1.477,1.907,1.907,0,0,0,1.393.549,1.754,1.754,0,0,0,1.393-.549A2.024,2.024,0,0,0,119.627,47.446Zm4.432,3.546V41.536h2.87a3.617,3.617,0,0,1,2.448.76,2.563,2.563,0,0,1,.886,2.068,2.852,2.852,0,0,1-.38,1.477,2.458,2.458,0,0,1-1.1.971l2.955,4.179h-2.279l-2.533-3.841h-.971v3.841h-1.9Zm3-7.809h-1.1v2.364h1.1a1.232,1.232,0,0,0,.929-.3,1.209,1.209,0,0,0,.338-.886,1.162,1.162,0,0,0-1.266-1.182Zm6.036,7.809V41.536h5.53v1.646h-3.588v2.195h3.039v1.646h-3.039v2.364h3.588v1.646h-5.53ZM13.8,64.5V55.044h5.53V56.69H15.745v2.195h3.039v1.646H15.745v2.364h3.588v1.646H13.8Zm7.092-7.725V55.044h7.767v1.731H25.749V64.5h-1.9V56.774ZM34.107,64.5V55.044h3.715a5.467,5.467,0,0,1,2.068.38,5.192,5.192,0,0,1,1.6,1.013,4.791,4.791,0,0,1,1.013,1.52,4.526,4.526,0,0,1,0,3.63,5.315,5.315,0,0,1-1.013,1.52,4.739,4.739,0,0,1-1.6,1.013,5.467,5.467,0,0,1-2.068.38Zm3.757-7.725H36.048v5.952h1.815a3.922,3.922,0,0,0,1.224-.211,3.854,3.854,0,0,0,.971-.633,3.223,3.223,0,0,0,.633-.971,2.8,2.8,0,0,0,.211-1.182,3.662,3.662,0,0,0-.211-1.182,3.007,3.007,0,0,0-.633-.929,3.223,3.223,0,0,0-.971-.633A3.718,3.718,0,0,0,37.864,56.774ZM44.871,64.5V55.044H50.4V56.69H46.812v2.195h3.039v1.646H46.812v2.364H50.4v1.646h-5.53Zm11.481,0V55.044h1.9v7.725H61.84V64.5Zm6.838-5.572H61.629l1.224-3.883h1.942Zm.929,5.572,3.588-9.455H70.24L73.828,64.5H71.759l-.886-2.448h-3.8L66.187,64.5ZM67.665,60.4H70.24l-1.309-3.546ZM75.389,64.5V55.044h1.9v7.725h3.588V64.5Zm7.345,0V55.044h1.9V64.5Zm4.685,0V55.044h2.406l2.279,3.883,2.279-3.883h2.406V64.5h-1.9V57.787l-2.111,3.5H91.43l-2.111-3.5V64.5Zm12.157,0V55.044h5.53V56.69h-3.588v2.195h3.039v1.646h-3.039v2.364h3.588v1.646h-5.53Zm7.894,0V55.044h2.448l4.221,6.754V55.044h1.9V64.5h-2.448l-4.221-6.8v6.8ZM117.9,56.774V55.044h7.767v1.731h-2.913V64.5h-1.9V56.774Zm7.471,7.725,3.588-9.455h2.533l3.588,9.455H133.05l-.886-2.448h-3.8l-.886,2.448Zm3.546-4.095h2.575l-1.309-3.546Zm5.783-3.63V55.044h7.767v1.731h-2.913V64.5h-1.9V56.774Zm9.582,7.725V55.044h1.9V64.5Zm8.949-9.751a4.588,4.588,0,0,1,2.026.422,6.011,6.011,0,0,1,1.6,1.1,4.516,4.516,0,0,1,1.013,1.6,4.977,4.977,0,0,1,.38,1.942,5.132,5.132,0,0,1-.38,1.942,5.742,5.742,0,0,1-1.013,1.6,4.914,4.914,0,0,1-1.6,1.1,5.434,5.434,0,0,1-2.026.422,4.465,4.465,0,0,1-2.026-.422,4.722,4.722,0,0,1-1.6-1.1,4,4,0,0,1-1.013-1.6,4.977,4.977,0,0,1-.38-1.942,5.132,5.132,0,0,1,.38-1.942,5.742,5.742,0,0,1,1.013-1.6,4.914,4.914,0,0,1,1.6-1.1A5.1,5.1,0,0,1,153.227,54.748Zm0,8.231a3.028,3.028,0,0,0,1.224-.253,3.092,3.092,0,0,0,.971-.675,4.11,4.11,0,0,0,.633-1.013,3.076,3.076,0,0,0,.211-1.266,3.979,3.979,0,0,0-.211-1.266,4.11,4.11,0,0,0-.633-1.013,2.677,2.677,0,0,0-.971-.675,3.085,3.085,0,0,0-2.448,0,2.677,2.677,0,0,0-.971.675A4.11,4.11,0,0,0,150.4,58.5a3.076,3.076,0,0,0-.211,1.266,3.98,3.98,0,0,0,.211,1.266,4.11,4.11,0,0,0,.633,1.013,2.677,2.677,0,0,0,.971.675A2.755,2.755,0,0,0,153.227,62.979Zm6.965,1.52V55.044h2.448l4.221,6.754V55.044h1.9V64.5h-2.448l-4.221-6.8v6.8Z"/>
    </g>
  </g>
</svg>
